<svg version="1.1" id="Layer_1" xmlns="http://www.w3.org/2000/svg" xmlns:xlink="http://www.w3.org/1999/xlink" x="0px" y="0px"
	 width="100%" viewBox="0 0 1024 1024" enable-background="new 0 0 1024 1024" xml:space="preserve">
<path fill="#000000" opacity="1.000000" stroke="none" 
	d="
M622.531982,254.671280 
	C627.652100,252.113724 631.999634,249.036255 636.058777,245.567200 
	C638.464905,243.510925 640.632935,243.652786 642.484619,246.075211 
	C660.172058,269.214386 679.082458,291.645416 687.741699,320.253693 
	C691.317749,332.068237 693.509033,344.183472 693.538513,356.600555 
	C693.539978,357.209106 693.310730,357.818176 693.195007,358.396667 
	C692.657776,358.372437 692.130737,358.436829 692.096130,358.334503 
	C689.757629,351.428894 684.297913,349.826599 677.754456,349.057922 
	C669.827209,348.126740 661.956360,346.468384 655.160156,341.749969 
	C654.495178,341.288269 653.647156,341.066223 652.856323,340.823578 
	C652.599304,340.744659 652.253601,340.954803 651.626160,341.115051 
	C652.657776,345.509155 655.846619,347.661041 659.672424,349.010529 
	C662.487305,350.003479 665.470032,350.511169 668.314270,351.432037 
	C672.982666,352.943512 674.335205,355.654205 672.617554,360.276276 
	C669.857422,367.703888 663.153687,370.227539 656.517273,372.495331 
	C647.290955,375.648224 641.251404,373.323914 636.074951,365.137909 
	C633.493774,361.056030 630.999512,356.917786 628.350769,352.880615 
	C626.916138,350.693970 625.332031,348.574188 622.301697,346.577271 
	C623.108582,351.214569 625.134399,354.425598 626.631592,357.848511 
	C629.930176,365.390106 634.831116,371.934662 639.272034,378.776855 
	C641.625244,382.402344 644.603638,383.313507 648.679138,382.335724 
	C651.860291,381.572479 655.007385,380.271027 658.819031,380.750336 
	C659.269653,385.286377 657.375732,389.129517 655.493286,392.899994 
	C653.231201,397.431122 649.815613,401.108124 646.073303,404.460541 
	C638.125122,411.580536 634.708862,420.163483 636.848389,430.882294 
	C638.053955,436.922089 636.381775,442.142700 630.816284,445.549042 
	C627.745850,447.428284 626.406921,450.297791 625.519226,453.656586 
	C621.383362,469.305328 612.099304,479.646210 595.627930,482.809967 
	C591.497437,483.603333 589.361389,482.532806 588.172791,478.558105 
	C585.979553,471.223511 583.555725,463.957794 581.226929,456.663757 
	C579.031250,449.786774 577.760559,442.812592 578.706299,435.547150 
	C580.225647,423.875000 574.320496,413.860168 571.111328,403.301483 
	C569.628418,398.422668 560.095154,394.611084 554.993591,395.659302 
	C552.062683,396.261536 549.139526,396.983948 546.175293,397.327942 
	C531.141785,399.072418 519.561340,388.946960 518.706482,373.652588 
	C518.072876,362.318909 521.972473,352.991333 528.333862,343.529358 
	C538.055603,329.069153 552.339355,326.367828 567.583496,324.605011 
	C570.860657,324.226044 573.207275,325.302765 574.901794,328.470551 
	C578.050842,334.357544 584.487427,335.184509 589.956482,337.424500 
	C590.354980,337.587708 591.075195,337.520935 591.387512,337.256317 
	C596.749573,332.713226 602.498596,335.499847 608.102783,336.390015 
	C615.307922,337.534454 618.282349,336.124084 620.108521,330.733337 
	C621.308411,327.191101 620.107239,325.166962 616.612854,324.574249 
	C612.163391,323.819580 607.776917,322.897400 603.637756,321.065002 
	C601.982361,320.332184 600.930847,320.845551 599.721436,322.084534 
	C595.257874,326.657043 593.886353,326.458588 590.431213,321.050201 
	C586.502258,314.900146 570.730286,309.546326 563.650635,311.687500 
	C559.502014,312.942200 557.061340,315.903900 554.524536,319.052124 
	C549.378235,325.438782 544.144287,327.291718 538.543701,325.024323 
	C533.947632,323.163605 531.021790,316.057190 533.031372,311.544098 
	C534.068237,309.215485 536.218689,308.953400 538.423828,308.624268 
	C541.298767,308.195038 544.379456,309.537201 547.078918,307.864990 
	C547.710266,304.754150 544.494324,303.522247 544.213318,301.104645 
	C544.780151,299.143921 546.577271,298.789001 547.935303,297.919281 
	C550.315613,296.394867 553.469971,295.408661 554.947998,293.264771 
	C560.578003,285.098633 569.117859,283.934845 577.545288,284.243683 
	C586.199341,284.560822 589.582703,279.293335 592.950195,273.206177 
	C593.315979,272.545044 593.643494,271.270538 593.307922,270.904083 
	C589.434753,266.674988 590.698364,262.041901 592.273926,257.248688 
	C588.322449,259.783905 585.405273,262.594849 585.086609,267.483612 
	C584.798706,271.900635 582.824646,275.830719 580.154480,279.325287 
	C577.337952,283.011475 575.047729,283.173767 572.141296,279.505463 
	C570.038269,276.851135 567.931946,275.383240 564.327454,275.191284 
	C559.771545,274.948669 557.173767,265.644775 561.070984,261.511719 
	C567.244507,254.964661 572.171021,247.295273 578.930481,241.366852 
	C585.761292,235.375824 594.089478,234.901459 602.533325,236.930893 
	C609.487610,238.602325 616.334595,240.731705 623.196838,242.767059 
	C624.886780,243.268295 627.018372,243.703033 627.108093,246.027679 
	C627.199890,248.406555 625.220154,249.307434 623.479919,250.333603 
	C621.680359,251.394791 619.207825,251.194717 617.869934,253.234726 
	C618.833923,255.288574 620.544312,254.914825 622.531982,254.671280 
z"/>
<path fill="#000000" opacity="1.000000" stroke="none" 
	d="
M386.095642,349.965759 
	C378.225098,352.345062 374.923676,357.289307 376.649353,363.652191 
	C377.937469,368.401672 380.682556,369.937592 385.285950,368.269012 
	C387.311066,367.535004 389.187836,366.399323 391.157410,365.501892 
	C392.806122,364.750671 394.677643,363.454498 396.306519,364.701477 
	C398.156830,366.118042 397.206848,368.370758 396.857147,370.304901 
	C396.511047,372.219055 395.509888,374.061493 396.276703,376.428040 
	C402.493256,376.121277 404.624969,379.479797 404.466675,385.413544 
	C404.373108,388.920746 406.777893,390.671295 410.403290,390.708527 
	C412.641846,390.731476 414.640503,389.925507 416.733887,389.419220 
	C428.863373,386.485748 440.421021,386.982147 450.964722,394.691376 
	C454.586639,397.339569 458.525024,399.562653 462.370392,401.894897 
	C465.274963,403.656525 467.902679,405.637665 469.178650,408.940125 
	C470.174591,411.517792 472.363037,412.716370 474.709198,413.664062 
	C480.575836,416.033905 486.532043,418.192261 492.336792,420.702606 
	C499.726532,423.898407 501.183167,427.640869 497.955261,435.041809 
	C495.025818,441.758514 491.854218,448.370026 488.760742,455.014526 
	C487.631073,457.441040 486.472046,460.000519 484.283630,461.561188 
	C477.359650,466.498932 472.511597,473.200378 467.628326,479.980804 
	C463.326385,485.953979 457.924500,491.026123 452.094666,495.470306 
	C445.004944,500.874908 440.144379,507.883698 435.918213,515.523193 
	C432.764069,521.224854 431.743408,521.374695 426.389587,517.500000 
	C418.512207,511.798981 418.099335,510.342377 420.163635,500.719025 
	C422.913239,487.900879 427.217163,475.411621 427.870056,462.139130 
	C428.175171,455.936432 426.349609,451.001862 421.519318,447.222168 
	C414.545319,441.764923 411.056488,433.986694 407.397125,426.314789 
	C404.529724,420.303253 406.205261,414.651001 408.799927,409.052765 
	C412.542847,400.977020 412.133728,399.859039 403.964722,396.408630 
	C397.067963,393.495544 391.871704,388.189575 386.055847,383.779266 
	C382.363556,380.979248 378.438202,379.048462 373.910370,378.312286 
	C368.472595,377.428162 363.604645,375.141846 359.805634,371.290710 
	C352.082947,363.462128 344.772919,355.261017 338.839630,345.907990 
	C331.087830,333.688263 329.978271,320.731110 333.937531,307.070435 
	C341.026642,282.610809 348.014709,258.119965 356.363892,234.048370 
	C358.314728,228.423874 359.233704,228.022919 364.642242,230.734055 
	C367.001526,231.916687 369.179565,233.510635 371.305115,235.098251 
	C374.499939,237.484512 377.061066,240.265533 375.415771,244.824692 
	C379.082153,246.639297 381.468018,244.460846 383.615234,242.609100 
	C385.759521,240.759903 384.205963,238.622467 383.153870,236.744553 
	C380.885559,232.695648 382.956177,230.419220 386.645599,230.015961 
	C401.662201,228.374634 416.819885,225.677994 430.292603,236.146713 
	C435.248840,239.997818 441.398468,242.204315 445.769623,247.009384 
	C448.319336,249.812103 449.003235,252.327194 445.820587,255.091217 
	C443.697388,256.935150 443.106506,259.612762 442.324615,262.160706 
	C441.309601,265.468262 439.252319,266.609619 435.824738,265.653229 
	C432.592865,264.751495 429.552338,263.450836 426.525909,262.052673 
	C422.045258,259.982758 419.850525,257.100250 421.312256,251.751190 
	C422.716461,246.612534 419.782318,243.130295 414.461578,242.450928 
	C412.283539,242.172852 411.533691,243.098343 411.236633,245.144135 
	C410.287537,251.680313 406.508606,255.868927 400.379669,258.282501 
	C395.232574,260.309418 391.817535,264.531952 388.563812,268.772400 
	C386.581909,271.355347 387.043457,273.743469 389.854462,275.544250 
	C390.274780,275.813538 390.723755,276.037689 391.155548,276.289459 
	C397.964325,280.259247 407.022736,281.036499 410.395660,290.340088 
	C411.284332,283.287018 416.635925,277.612518 413.350861,270.088379 
	C411.430725,265.690369 413.556641,263.855530 418.529266,263.657867 
	C423.775940,263.449280 427.443573,266.081848 430.304993,270.010345 
	C432.731201,273.341309 435.285065,274.764648 439.065643,272.087952 
	C441.571045,270.314087 443.565674,271.350281 444.818176,273.760162 
	C447.491333,278.903473 451.417175,282.847839 455.834412,286.516327 
	C460.134460,290.087494 460.652008,295.454224 461.236450,300.584442 
	C461.526703,303.132172 459.685822,304.187195 457.458008,304.225830 
	C453.438843,304.295502 450.560669,306.302368 448.045166,309.168091 
	C443.114258,314.785583 436.101227,317.547882 430.203033,321.848083 
	C421.998718,327.829559 417.500702,336.746033 410.713867,343.776642 
	C409.395874,345.141998 409.106842,347.008026 409.836761,348.932678 
	C410.126038,349.695343 410.287933,350.567169 410.256836,351.379700 
	C410.135651,354.543854 412.200500,358.995209 408.307983,360.355377 
	C403.942230,361.880859 403.508911,356.917755 401.988098,354.235535 
	C398.234833,347.615814 392.206116,349.336243 386.095642,349.965759 
z"/>
<path fill="#000000" opacity="1.000000" stroke="none" 
	d="
M520.212097,674.383179 
	C458.613647,686.292236 389.817474,660.496521 360.399048,597.270447 
	C351.401123,577.931946 347.469574,557.484802 347.634033,536.180603 
	C347.663757,532.326538 349.115204,530.779480 352.935120,530.792053 
	C383.765594,530.893860 414.596344,530.944397 445.426971,530.928772 
	C449.819061,530.926575 450.719513,533.361023 451.451904,537.147461 
	C454.542236,553.123596 463.001953,565.350342 478.748688,570.739319 
	C494.024384,575.967163 508.852814,574.163391 521.442017,563.314331 
	C533.276428,553.115723 538.241455,539.215698 538.534912,524.146362 
	C539.167480,491.660828 538.924255,459.158234 539.031372,426.662598 
	C539.051575,420.544128 539.034302,414.425568 539.034302,408.542236 
	C547.533630,406.804474 548.229614,407.336670 548.244812,414.720062 
	C548.263245,423.715668 548.249146,432.711365 548.249146,442.902252 
	C553.417480,434.340179 557.658813,426.375732 564.816711,419.893402 
	C567.185059,424.415955 567.945496,427.424103 564.671021,431.649200 
	C549.447327,451.292786 545.190735,473.435272 550.863525,497.634369 
	C553.818115,510.237885 557.491577,522.750488 557.286072,535.899048 
	C557.057129,550.550903 551.078796,561.676025 537.253540,567.618103 
	C526.861084,572.084778 517.233398,578.418640 506.152863,581.161438 
	C480.592804,587.488464 455.239105,574.035217 445.502411,549.271545 
	C441.547272,539.212280 440.628357,538.728577 429.512726,540.867981 
	C429.551697,541.168884 429.479248,541.637878 429.645844,541.749207 
	C442.119049,550.086243 447.601776,562.723816 451.267059,576.552063 
	C453.023926,583.180420 455.306152,589.606934 460.244415,594.714600 
	C468.000244,602.736450 477.988495,604.223572 487.454498,598.345215 
	C491.111664,596.074097 494.431610,593.228149 497.766357,590.475891 
	C506.935028,582.908875 517.667175,580.027100 529.288635,579.718872 
	C533.616882,579.604065 538.010010,579.994324 542.264221,579.387695 
	C556.254761,577.392700 563.877136,567.629150 564.766418,552.009094 
	C565.641052,536.647034 562.078552,521.933777 559.160522,507.082123 
	C556.540466,493.747284 555.291443,480.362274 559.853577,467.138123 
	C561.679871,461.844269 564.065491,456.852356 568.742126,452.436432 
	C570.470215,456.958252 571.879639,460.106750 569.419922,464.367188 
	C564.438904,472.994476 563.794617,482.613403 564.672119,492.446289 
	C565.932373,506.568573 570.174133,520.164673 571.758606,534.215881 
	C572.808533,543.526062 573.007385,552.836975 570.707336,562.008423 
	C566.660278,578.146057 555.917175,586.648254 539.025330,587.176392 
	C534.029480,587.332642 528.989502,586.981384 524.040039,587.515137 
	C515.229919,588.465271 507.426697,591.848206 500.697968,597.871155 
	C494.466309,603.449097 487.797760,608.645630 478.965912,609.254150 
	C464.740906,610.234375 453.485657,603.106628 447.651611,589.186584 
	C445.344299,583.681213 443.676849,577.878723 442.071869,572.113037 
	C435.130219,547.175842 413.547791,539.508667 394.714691,540.425964 
	C380.709717,541.108093 367.294067,556.126282 366.326324,571.473877 
	C366.075256,575.455261 365.990479,579.496704 366.374664,583.457642 
	C367.045013,590.368286 369.156097,596.683655 374.342743,601.813660 
	C396.285065,623.516724 421.845978,636.413147 453.466278,634.716736 
	C468.116333,633.930847 481.359131,628.805542 493.807709,621.287170 
	C505.781006,614.055969 517.579346,606.473877 531.248230,602.598816 
	C536.082397,601.228455 540.967102,600.013550 545.965515,600.098450 
	C560.782593,600.350342 568.665588,611.577393 564.762085,626.794006 
	C562.268250,636.515137 557.129272,644.830994 550.475952,652.257446 
	C549.397400,653.461365 548.295715,654.644714 547.471375,656.138977 
	C561.626038,651.419861 572.888367,642.892822 581.677124,630.891479 
	C595.514343,611.996338 597.722534,591.041321 592.123108,569.054138 
	C586.243408,545.966248 588.082275,523.872925 598.503784,502.465851 
	C599.376648,500.672974 600.371216,498.835175 600.720764,496.911346 
	C601.748535,491.254547 606.068787,490.627533 610.776062,489.609772 
	C611.139160,492.988403 609.634644,495.426544 608.632690,497.979462 
	C604.506165,508.494019 599.278931,518.583252 597.265381,529.890442 
	C594.841370,543.502686 597.029907,556.730896 599.920288,569.939026 
	C603.474487,586.180481 603.208313,599.633301 598.732239,614.936951 
	C603.613770,610.054321 606.437439,604.492310 609.185608,599.019287 
	C615.052673,587.335205 618.696594,574.880798 620.601685,561.948303 
	C621.188538,557.964355 621.093628,553.928101 619.454163,550.145264 
	C610.313110,529.053833 611.726501,508.150085 619.467041,486.917053 
	C621.973389,480.041840 627.094604,475.512939 630.108215,469.475433 
	C632.443298,470.289612 632.032288,471.827179 632.032166,473.046600 
	C632.029480,498.869415 633.045959,524.731201 631.132446,550.500732 
	C626.384399,614.443359 584.704102,660.360291 526.008484,673.200745 
	C524.221313,673.591736 522.427124,673.950928 520.212097,674.383179 
M554.174316,633.629944 
	C556.124695,629.917847 557.422180,626.002869 558.144043,621.859314 
	C559.319519,615.112427 556.193481,610.125793 549.585815,608.237305 
	C543.960022,606.629395 538.712524,608.419434 533.474487,609.945435 
	C520.522278,613.718811 509.302856,621.026794 497.900970,627.876221 
	C466.224304,646.904907 433.967468,646.822083 401.135986,631.218567 
	C398.533630,629.981812 395.940491,628.725586 393.343079,627.478333 
	C400.487152,636.505859 408.317810,644.494263 419.565491,647.414856 
	C436.157684,651.723206 453.010071,652.871521 470.020111,650.117310 
	C481.175110,648.311157 492.270844,646.007019 503.484558,644.727966 
	C518.343933,643.033081 524.100525,648.205505 524.958130,663.532349 
	C537.436890,656.195190 547.025391,646.657715 554.174316,633.629944 
M466.884674,666.580872 
	C481.650635,668.495483 496.417053,668.596313 511.211578,666.813782 
	C515.630432,666.281250 517.095337,663.291992 517.518311,659.651123 
	C517.973694,655.731995 515.605835,653.420349 512.006592,652.424011 
	C509.612976,651.761414 507.218475,651.416077 504.627747,651.861755 
	C482.883270,655.601685 461.319427,661.198181 438.855103,658.679443 
	C447.690033,662.168335 456.690155,664.886780 466.884674,666.580872 
M356.931488,541.265686 
	C355.946991,549.329041 357.884308,557.047363 359.385681,566.326965 
	C362.347839,555.978271 366.371490,547.935852 373.165985,541.153137 
	C367.638947,540.151489 362.595154,539.812500 356.931488,541.265686 
M543.577759,545.863647 
	C542.279785,549.199280 540.981873,552.534912 539.555054,556.201782 
	C548.608765,551.960022 551.306702,541.014832 548.204102,521.424866 
	C547.097595,529.915222 546.259888,537.665405 543.577759,545.863647 
M621.006042,510.546204 
	C619.595642,518.398499 619.654114,526.146301 622.561279,534.570251 
	C622.561279,523.915161 622.561279,514.146240 622.561279,504.377319 
	C622.430359,504.370911 622.299377,504.364471 622.168457,504.358063 
	C621.836975,506.148987 621.505493,507.939911 621.006042,510.546204 
z"/>
<path fill="#000000" opacity="1.000000" stroke="none" 
	d="
M530.440979,202.220856 
	C526.062378,208.554123 523.960144,215.454346 522.508850,222.443527 
	C519.573181,236.581528 512.063904,246.758133 498.361542,251.827682 
	C490.826691,254.615387 485.265747,258.938385 482.042236,266.725769 
	C479.471924,272.935242 476.403564,273.411346 470.427216,270.309631 
	C461.411835,265.630615 458.252808,257.523010 457.781769,248.031448 
	C457.599762,244.364014 457.495392,240.711914 456.614166,237.138962 
	C455.122070,231.089310 451.680328,227.166946 445.167633,226.236099 
	C441.239105,225.674576 437.215546,225.129150 433.809540,222.760803 
	C429.462616,219.738159 428.774719,216.530182 431.687408,212.195877 
	C435.478668,206.554245 440.266083,201.730957 446.564056,199.230972 
	C461.767609,193.195892 477.360382,188.179794 493.972412,188.780289 
	C502.184723,189.077133 510.563782,189.633148 516.924866,196.551605 
	C519.562195,199.419998 523.531860,197.313568 526.924438,196.865158 
	C531.692993,196.234894 532.557678,197.442871 530.440979,202.220856 
z"/>
<path fill="#000000" opacity="1.000000" stroke="none" 
	d="
M545.048523,776.767273 
	C535.662720,774.402588 527.200134,776.292786 518.992493,780.076477 
	C517.062988,780.966003 514.614075,782.689026 513.891724,779.225464 
	C513.257751,776.185791 507.801025,772.849792 514.052673,769.752502 
	C525.839844,763.912659 537.995361,761.930298 550.848755,765.596252 
	C561.203369,768.549438 566.785156,775.766052 568.157043,786.005859 
	C570.177795,801.089050 568.643433,816.294189 568.881836,831.443726 
	C568.924133,834.125488 567.667053,835.471863 564.915710,835.300110 
	C564.252014,835.258606 563.577820,835.253418 562.917175,835.319336 
	C558.496338,835.760254 554.701416,835.406982 555.682678,828.296143 
	C549.438538,833.101318 543.428223,835.978210 536.484070,836.799133 
	C530.526184,837.503540 524.817383,836.813416 519.332581,834.649353 
	C510.121124,831.014893 504.800751,822.304932 505.786987,812.964783 
	C506.825195,803.132751 513.207642,796.610962 523.497864,794.716125 
	C532.102478,793.131653 540.786133,793.655029 549.427246,793.850769 
	C554.025879,793.954895 555.344421,792.242798 554.828369,787.989624 
	C554.119751,782.149841 550.771423,778.716187 545.048523,776.767273 
M555.560425,809.626465 
	C556.378235,804.606567 554.313232,802.560303 549.247437,803.256042 
	C547.294678,803.524292 545.269592,803.213745 543.283813,803.305359 
	C537.518982,803.571228 531.645874,802.387390 526.011963,804.409485 
	C522.317200,805.735535 519.845947,808.231079 519.281921,812.279541 
	C518.663086,816.721375 519.768433,820.474060 523.582825,823.202637 
	C535.063538,831.415283 553.086365,824.199768 555.560425,809.626465 
z"/>
<path fill="#000000" opacity="1.000000" stroke="none" 
	d="
M611.826538,834.481323 
	C596.316223,828.362183 588.776611,816.991943 588.214722,800.960388 
	C587.705811,786.438110 596.259521,772.415405 608.874390,767.282776 
	C624.183167,761.054138 638.656738,762.619690 651.204590,773.792114 
	C661.744812,783.176941 664.770935,801.504089 658.775879,815.396240 
	C652.885132,829.046814 638.722900,837.541565 623.446533,836.590820 
	C619.624084,836.352844 615.818665,836.024597 611.826538,834.481323 
M648.495178,802.154053 
	C648.389648,795.179382 647.187500,788.555786 642.252991,783.180237 
	C635.688538,776.029175 625.648621,773.716858 616.646179,777.242859 
	C606.949158,781.040894 601.697388,789.526611 601.934692,801.013733 
	C602.160645,811.949219 607.617554,820.179993 617.007751,823.551758 
	C618.708008,824.162231 620.540039,824.508362 622.341370,824.717834 
	C634.142883,826.090027 646.343628,819.096191 648.495178,802.154053 
z"/>
<path fill="#000000" opacity="1.000000" stroke="none" 
	d="
M426.955017,774.977356 
	C438.137939,764.130981 451.109100,761.512573 465.453400,765.490417 
	C478.658905,769.152405 486.590942,778.132019 489.772797,791.357666 
	C494.713684,811.894592 483.220215,830.880798 462.998138,835.676819 
	C442.569550,840.521790 422.506836,828.980591 418.385406,809.296509 
	C415.790497,796.902954 417.944122,785.125916 426.955017,774.977356 
M476.832336,806.321716 
	C477.026703,805.511719 477.279755,804.710876 477.406647,803.890442 
	C479.355011,791.293579 471.420288,778.909180 459.724274,776.267700 
	C447.108551,773.418518 435.649841,779.988159 431.941956,792.196045 
	C427.708435,806.134521 434.513184,820.154846 447.417633,824.081726 
	C460.300812,828.002136 472.923370,820.697876 476.832336,806.321716 
z"/>
<path fill="#000000" opacity="1.000000" stroke="none" 
	d="
M609.724609,212.273544 
	C605.722900,207.371078 600.884033,206.128647 594.953613,205.973618 
	C582.949646,205.659790 571.660095,207.283188 561.905640,214.754822 
	C550.552246,223.451172 547.175964,235.175400 549.597595,248.909790 
	C549.770508,249.890732 550.079834,250.848785 550.232605,251.831955 
	C551.427856,259.526184 549.326111,261.397339 541.733704,259.564819 
	C540.329285,259.225830 539.744812,258.483795 539.722534,257.174225 
	C539.488525,243.391312 537.957520,229.537842 540.716309,215.874924 
	C543.232361,203.413910 550.638245,197.048111 563.409973,196.852066 
	C584.545044,196.527649 605.689026,196.801926 626.829285,196.778473 
	C630.596802,196.774292 632.275940,198.508240 632.248474,202.259827 
	C632.182678,211.248154 632.199524,220.237366 632.238770,229.225998 
	C632.251831,232.225494 631.163818,233.304703 627.966309,232.875244 
	C622.988342,232.206650 619.314270,230.728516 617.763855,225.184738 
	C616.423035,220.390869 613.423462,216.226822 609.724609,212.273544 
M617.093384,209.625519 
	C618.778015,211.916138 620.462646,214.206741 622.731750,217.292023 
	C622.731750,213.661835 623.007690,211.178650 622.661987,208.785294 
	C622.228943,205.788116 619.668091,206.261765 617.573730,206.422562 
	C615.371521,206.591629 615.783752,207.807465 617.093384,209.625519 
z"/>
<path fill="#000000" opacity="1.000000" stroke="none" 
	d="
M382.469849,834.823425 
	C369.730743,839.167297 358.459442,837.754700 349.097595,827.995178 
	C344.394135,823.092102 344.580109,822.473938 350.013763,818.614746 
	C351.340027,817.672791 352.491028,816.349182 354.548859,816.235046 
	C357.411774,819.224304 360.234070,822.468750 364.528412,823.929626 
	C374.538177,827.334778 382.652374,822.110413 382.771240,811.624390 
	C382.976837,793.491150 382.840668,775.354126 382.856171,757.218689 
	C382.858704,754.223999 382.976898,751.227722 382.909210,748.235107 
	C382.832886,744.860535 384.286072,743.331909 387.729156,743.655457 
	C389.544647,743.826050 391.386200,743.722961 393.216034,743.735901 
	C395.271820,743.750488 396.281464,744.807861 396.244385,746.834900 
	C395.818756,770.102234 397.403900,793.405518 395.315552,816.634705 
	C394.586090,824.749146 390.321930,830.961426 382.469849,834.823425 
z"/>
<path fill="#000000" opacity="1.000000" stroke="none" 
	d="
M389.029419,555.781860 
	C406.753479,548.138184 424.204895,554.537842 431.841309,571.687622 
	C436.774261,582.765930 438.995819,594.515198 437.339172,606.693604 
	C435.940613,616.975037 429.085693,621.554993 418.862305,619.373352 
	C401.691010,615.708862 380.483978,593.210510 378.484497,576.320801 
	C377.428009,567.396790 380.410461,560.294861 389.029419,555.781860 
M386.319122,569.873657 
	C385.428528,572.112976 385.356628,574.314697 386.075317,576.678040 
	C391.250977,593.697998 403.326447,604.391052 418.862976,611.375793 
	C425.800262,614.494568 430.394775,610.809814 430.603668,602.958618 
	C430.867920,593.026794 428.855621,583.458252 424.795837,574.386902 
	C421.529449,567.088379 415.950470,562.511475 408.068420,560.733337 
	C399.275696,558.749817 390.223938,562.231140 386.319122,569.873657 
z"/>
<path fill="#000000" opacity="1.000000" stroke="none" 
	d="
M519.230225,741.198853 
	C525.070374,736.273499 531.220520,736.962463 537.405151,739.198059 
	C540.050110,740.154114 542.462280,741.734863 545.049561,742.874329 
	C549.727600,744.934387 552.455872,744.236694 554.380310,739.686279 
	C556.294922,735.158936 559.709473,737.083801 562.447021,737.426086 
	C565.750183,737.839172 564.397644,740.854248 564.117615,742.716736 
	C562.739380,751.883911 555.400513,756.583374 546.273438,754.501587 
	C541.978516,753.521912 538.318176,751.139954 534.322021,749.509888 
	C530.227661,747.839905 526.988159,748.026184 525.101685,752.908691 
	C523.476013,757.116455 519.589478,755.303467 516.817566,754.902527 
	C513.560669,754.431396 515.123413,751.621765 515.441406,749.625549 
	C515.921509,746.612183 517.017212,743.859314 519.230225,741.198853 
z"/>
<path fill="#000000" opacity="1.000000" stroke="none" 
	d="
M581.828735,221.532471 
	C573.088318,223.950211 568.163757,229.553574 566.232971,237.810440 
	C565.271057,241.923721 562.957947,244.509186 558.350403,246.071823 
	C556.397400,236.987717 559.654419,229.673828 564.800659,223.062378 
	C571.622498,214.298309 584.857239,210.596420 595.993225,214.228577 
	C601.907837,216.157700 607.006958,219.248627 609.007812,226.370483 
	C605.311707,226.628677 602.088684,226.933334 599.742004,225.078033 
	C594.407471,220.860565 588.472778,220.695389 581.828735,221.532471 
z"/>
<path fill="#000000" opacity="1.000000" stroke="none" 
	d="
M643.626709,448.842651 
	C642.557983,443.629120 644.318726,440.403137 648.486938,437.669403 
	C651.134583,435.932922 652.909668,432.865967 655.144531,430.317566 
	C659.876831,433.630615 659.878662,437.594025 658.873840,441.457611 
	C657.499634,446.741577 655.656128,451.910309 653.864746,457.076752 
	C652.497375,461.020569 650.026489,463.864655 645.395386,463.035950 
	C642.542236,462.525421 641.204163,457.454285 642.480164,453.055695 
	C642.849182,451.783752 643.228699,450.514893 643.626709,448.842651 
z"/>
<path fill="#000000" opacity="1.000000" stroke="none" 
	d="
M541.403320,291.265503 
	C542.137207,288.086792 541.244080,285.715668 539.645142,283.407898 
	C538.074280,281.140717 537.209045,278.632263 538.698425,275.913635 
	C539.753418,273.988098 540.886169,271.928680 543.362549,271.888916 
	C545.802429,271.849762 546.409851,274.093597 547.315857,275.855743 
	C549.140198,279.403778 551.120605,282.877380 552.801941,286.490906 
	C553.809937,288.657227 554.398376,291.150665 551.601685,292.571655 
	C548.551270,294.121582 545.504333,296.353424 541.820679,294.821136 
	C540.581970,294.305878 541.093506,292.776459 541.403320,291.265503 
z"/>
</svg>