<svg version="1.1" id="Layer_1" xmlns="http://www.w3.org/2000/svg" xmlns:xlink="http://www.w3.org/1999/xlink" x="0px" y="0px"
	 width="100%" viewBox="0 0 1024 1024" enable-background="new 0 0 1024 1024" xml:space="preserve">
<path fill="#000000" opacity="1.000000" stroke="none" 
	d="
M727.652344,619.956970 
	C701.996277,620.506592 680.218140,613.229736 664.517639,592.300598 
	C657.229980,582.585876 653.372742,571.435425 652.110229,559.505798 
	C650.286438,542.273376 652.301758,525.547485 660.783203,510.095581 
	C671.630127,490.334106 688.930298,480.112000 710.766479,476.703583 
	C720.754578,475.144501 730.657349,475.452911 740.542175,477.537018 
	C761.503845,481.956573 776.672058,493.840607 786.214600,512.940002 
	C799.771057,540.073242 795.936890,575.656250 776.743347,597.435791 
	C765.352173,610.361938 750.506653,617.034973 733.570312,619.290283 
	C731.755981,619.531921 729.932373,619.703186 727.652344,619.956970 
M752.939026,515.579651 
	C735.746460,496.574158 704.431580,497.614227 690.994629,518.251648 
	C680.039612,535.077148 679.171326,553.445435 687.340576,571.631042 
	C693.298950,584.895203 704.276001,592.418457 718.943542,593.632507 
	C734.132568,594.889709 746.986389,590.214355 755.611084,577.031250 
	C766.621338,560.201660 765.455200,532.276062 752.939026,515.579651 
z"/>
<path fill="#000000" opacity="1.000000" stroke="none" 
	d="
M589.991699,531.640320 
	C593.488403,531.642273 596.487305,531.671692 599.485535,531.640930 
	C604.984558,531.584473 606.161133,530.198059 605.456421,524.687073 
	C603.662415,510.657471 595.549561,503.246887 581.242859,502.230469 
	C565.200256,501.090759 550.005920,503.300964 536.465820,512.731140 
	C535.941528,513.096313 535.258118,513.232910 534.071228,513.706421 
	C530.859985,507.111603 527.920227,500.504456 525.890076,493.512573 
	C525.095703,490.776917 527.197510,489.674255 529.066284,488.533295 
	C539.162537,482.368896 550.148132,478.698059 561.805054,476.974152 
	C573.775269,475.203888 585.720703,475.437012 597.554626,477.991608 
	C618.885986,482.596497 632.258118,497.970947 634.296936,519.825867 
	C636.204956,540.279541 634.858154,560.773621 635.207764,581.245972 
	C635.372681,590.905334 635.087158,600.573242 635.307007,610.230408 
	C635.402893,614.440796 634.147888,616.365479 629.664795,616.176270 
	C623.511719,615.916504 617.335083,615.951477 611.177795,616.149414 
	C607.147705,616.278992 605.251221,614.897705 605.669800,610.673889 
	C605.897461,608.376953 605.710449,606.038879 605.710449,603.772217 
	C603.916504,603.200745 603.351624,604.519104 602.625122,605.256287 
	C590.975525,617.077637 576.341797,620.202515 560.505493,619.656677 
	C550.190918,619.301208 540.368103,617.040771 531.736755,611.026855 
	C506.647430,593.545898 509.195068,553.804138 536.250488,539.566040 
	C546.998657,533.909729 558.632141,532.260376 570.504333,531.750183 
	C576.823975,531.478638 583.163208,531.662415 589.991699,531.640320 
M550.491699,590.008850 
	C563.253784,599.591064 576.787109,597.817627 590.083191,591.902832 
	C600.654846,587.199890 605.463684,578.158447 605.650635,566.666016 
	C605.704773,563.339661 605.496338,560.001526 605.703064,556.687256 
	C605.919861,553.212097 604.478455,551.902832 601.075195,551.963135 
	C589.932251,552.160522 578.752625,551.722290 567.653015,552.485901 
	C558.405396,553.122009 549.806946,556.319336 545.918579,565.866943 
	C542.447083,574.390869 543.586243,582.495178 550.491699,590.008850 
z"/>
<path fill="#000000" opacity="1.000000" stroke="none" 
	d="
M487.052856,423.940918 
	C479.178131,449.882385 471.429901,475.443451 463.406219,501.913116 
	C477.752808,501.007477 490.763977,497.594391 504.511017,496.841644 
	C463.155243,551.097168 422.949951,605.996582 381.398590,660.028137 
	C395.575012,623.928833 412.528351,589.088745 428.171326,552.673035 
	C417.950867,551.847534 408.781677,552.278320 398.024323,553.087524 
	C432.468414,493.811005 465.055084,434.792603 500.414459,377.241821 
	C499.614502,385.254669 496.322632,392.541412 494.221222,400.135284 
	C492.047150,407.991638 489.540527,415.755951 487.052856,423.940918 
z"/>
<path fill="#000000" opacity="1.000000" stroke="none" 
	d="
M310.872009,449.115021 
	C310.979706,441.739746 310.979706,441.738098 317.858337,441.734711 
	C324.188538,441.731598 330.521423,441.841583 336.847900,441.687347 
	C340.202698,441.605591 341.544739,442.675079 341.531128,446.265594 
	C341.379028,486.400391 341.560791,526.537170 341.255554,566.670410 
	C341.017120,598.018372 319.223694,619.584961 287.925476,620.320618 
	C270.977203,620.718994 255.102814,617.560791 241.420486,606.910034 
	C229.073364,597.298645 229.117508,597.207764 238.767670,585.351379 
	C241.673340,581.781372 244.696930,578.307434 247.519058,574.964172 
	C250.279861,575.878174 251.070343,577.869995 252.323273,579.347900 
	C261.927612,590.676575 274.315277,594.652344 288.626495,592.430481 
	C302.109894,590.337097 310.593628,579.844238 310.689728,565.041443 
	C310.926575,528.560913 310.835602,492.078278 310.875763,455.596466 
	C310.877960,453.597443 310.874268,451.598450 310.872009,449.115021 
z"/>
<path fill="#000000" opacity="1.000000" stroke="none" 
	d="
M428.841553,486.747559 
	C427.663513,488.798370 426.598755,490.495117 425.684662,492.269501 
	C422.315033,498.810333 418.358704,504.267700 411.297058,507.968842 
	C402.045410,512.817810 397.097565,521.901428 394.616211,531.897095 
	C392.276733,541.320923 391.686096,550.982117 393.542633,560.606506 
	C395.015289,568.240662 397.855835,575.352966 403.361542,581.037659 
	C405.833496,583.590027 406.024323,585.899170 404.504211,589.043640 
	C401.826263,594.583252 399.433319,600.272278 397.176636,605.999573 
	C395.779907,609.544495 394.041107,610.224792 390.833160,608.023560 
	C372.874023,595.700317 363.583771,578.520508 361.615173,557.003174 
	C360.348419,543.157104 361.872192,529.700012 367.107727,516.866211 
	C376.629639,493.525238 394.569794,480.757385 419.100037,476.763428 
	C423.824432,475.994263 428.598511,474.974304 433.697052,476.200439 
	C433.572998,480.333740 430.375305,482.982819 428.841553,486.747559 
z"/>
<path fill="#000000" opacity="1.000000" stroke="none" 
	d="
M467.235504,574.176819 
	C470.546875,567.335083 472.677979,560.553772 472.697021,553.242188 
	C472.701080,551.685974 473.013428,550.249817 473.953888,549.016357 
	C481.527466,539.082886 489.111481,529.157471 496.721741,519.252136 
	C497.099182,518.760864 497.749664,518.479370 498.273987,518.099426 
	C506.684265,529.777039 508.800873,570.324158 489.552826,594.093262 
	C474.617432,612.536682 437.766663,626.299438 421.718445,618.362793 
	C425.719299,612.987610 429.858917,607.822388 433.551453,602.355286 
	C437.352844,596.726990 441.517059,592.437866 448.649353,590.549438 
	C456.992462,588.340332 462.623138,581.823486 467.235504,574.176819 
z"/>
<path fill="#000000" opacity="1.000000" stroke="none" 
	d="
M541.108276,464.081848 
	C533.227844,464.125610 533.149719,464.030975 534.660828,456.867096 
	C538.739441,437.532074 553.841003,428.728516 573.338074,434.174194 
	C579.478882,435.889343 584.967834,439.110565 590.902039,441.268890 
	C599.109741,444.254028 602.557434,442.951233 606.505371,435.068390 
	C607.428467,433.225220 608.559998,432.676392 610.354065,432.680664 
	C614.847900,432.691437 619.343201,432.749115 623.835144,432.657166 
	C626.875488,432.594940 627.528931,434.287720 627.207520,436.812714 
	C624.224182,460.248077 607.791382,467.956512 590.042664,462.702606 
	C584.737854,461.132263 579.921875,458.472595 574.914185,456.238068 
	C571.360901,454.652496 567.704346,453.718414 563.775269,454.116821 
	C560.141235,454.485321 557.164551,456.218262 556.164856,459.659393 
	C555.014404,463.619537 552.618225,464.343781 549.074829,464.056366 
	C546.596069,463.855377 544.085205,464.050354 541.108276,464.081848 
z"/>
<path fill="#000000" opacity="1.000000" stroke="none" 
	d="
M479.591797,489.298462 
	C480.838959,490.314911 482.124969,490.918304 481.913879,492.792267 
	C479.408173,493.654053 476.811462,494.203278 474.086945,494.002991 
	C473.010712,491.394775 473.843079,489.385803 475.432495,487.995087 
	C476.813568,486.786713 478.091431,488.410065 479.591797,489.298462 
z"/>
</svg>