<?xml version="1.0" encoding="UTF-8"?>
<svg xmlns="http://www.w3.org/2000/svg" xmlns:xlink="http://www.w3.org/1999/xlink" width="48px" height="48px" viewBox="0 0 48 48" version="1.1">
<g id="surface1">
<path style=" stroke:none;fill-rule:nonzero;fill:rgb(0%,0%,0%);fill-opacity:1;" d="M 29.179688 11.9375 C 29.421875 11.816406 29.625 11.671875 29.816406 11.511719 C 29.929688 11.414062 30.03125 11.421875 30.117188 11.535156 C 30.945312 12.621094 31.832031 13.671875 32.238281 15.011719 C 32.40625 15.566406 32.507812 16.132812 32.507812 16.714844 C 32.507812 16.746094 32.5 16.773438 32.492188 16.800781 C 32.46875 16.796875 32.445312 16.800781 32.441406 16.796875 C 32.332031 16.472656 32.078125 16.398438 31.769531 16.363281 C 31.398438 16.320312 31.027344 16.242188 30.710938 16.019531 C 30.679688 15.996094 30.640625 15.988281 30.601562 15.976562 C 30.589844 15.972656 30.574219 15.980469 30.546875 15.988281 C 30.59375 16.195312 30.742188 16.296875 30.921875 16.359375 C 31.054688 16.40625 31.195312 16.429688 31.328125 16.472656 C 31.546875 16.542969 31.609375 16.671875 31.527344 16.886719 C 31.398438 17.234375 31.085938 17.355469 30.773438 17.460938 C 30.339844 17.609375 30.058594 17.5 29.816406 17.117188 C 29.695312 16.925781 29.578125 16.730469 29.453125 16.542969 C 29.386719 16.4375 29.3125 16.339844 29.171875 16.246094 C 29.207031 16.464844 29.304688 16.613281 29.375 16.773438 C 29.527344 17.128906 29.757812 17.433594 29.964844 17.753906 C 30.074219 17.925781 30.214844 17.96875 30.40625 17.921875 C 30.554688 17.886719 30.703125 17.824219 30.882812 17.847656 C 30.902344 18.058594 30.816406 18.242188 30.726562 18.417969 C 30.621094 18.628906 30.460938 18.800781 30.285156 18.960938 C 29.914062 19.292969 29.753906 19.695312 29.851562 20.199219 C 29.910156 20.480469 29.832031 20.726562 29.570312 20.886719 C 29.425781 20.972656 29.363281 21.109375 29.320312 21.265625 C 29.128906 22 28.691406 22.484375 27.921875 22.632812 C 27.726562 22.667969 27.625 22.617188 27.570312 22.433594 C 27.46875 22.089844 27.355469 21.746094 27.246094 21.40625 C 27.140625 21.082031 27.082031 20.757812 27.125 20.417969 C 27.199219 19.867188 26.921875 19.398438 26.769531 18.90625 C 26.703125 18.675781 26.253906 18.496094 26.015625 18.546875 C 25.878906 18.574219 25.742188 18.609375 25.601562 18.625 C 24.898438 18.707031 24.355469 18.230469 24.3125 17.515625 C 24.285156 16.984375 24.46875 16.546875 24.765625 16.101562 C 25.222656 15.425781 25.890625 15.296875 26.605469 15.214844 C 26.757812 15.199219 26.867188 15.25 26.949219 15.398438 C 27.097656 15.671875 27.398438 15.710938 27.652344 15.816406 C 27.671875 15.824219 27.707031 15.820312 27.722656 15.808594 C 27.972656 15.597656 28.242188 15.726562 28.503906 15.769531 C 28.84375 15.820312 28.980469 15.753906 29.066406 15.503906 C 29.125 15.335938 29.066406 15.242188 28.902344 15.214844 C 28.695312 15.179688 28.488281 15.136719 28.296875 15.050781 C 28.21875 15.015625 28.167969 15.039062 28.113281 15.097656 C 27.902344 15.3125 27.839844 15.304688 27.675781 15.050781 C 27.492188 14.761719 26.753906 14.511719 26.421875 14.609375 C 26.226562 14.667969 26.113281 14.808594 25.992188 14.957031 C 25.753906 15.253906 25.507812 15.34375 25.246094 15.234375 C 25.027344 15.148438 24.890625 14.816406 24.984375 14.605469 C 25.035156 14.496094 25.136719 14.480469 25.238281 14.464844 C 25.375 14.445312 25.519531 14.507812 25.644531 14.429688 C 25.675781 14.285156 25.523438 14.226562 25.511719 14.113281 C 25.535156 14.023438 25.621094 14.003906 25.683594 13.964844 C 25.796875 13.894531 25.945312 13.847656 26.011719 13.746094 C 26.277344 13.363281 26.675781 13.308594 27.074219 13.324219 C 27.476562 13.339844 27.636719 13.09375 27.792969 12.804688 C 27.8125 12.777344 27.828125 12.714844 27.8125 12.699219 C 27.628906 12.5 27.6875 12.285156 27.761719 12.058594 C 27.578125 12.175781 27.441406 12.308594 27.425781 12.539062 C 27.414062 12.746094 27.320312 12.929688 27.195312 13.09375 C 27.0625 13.265625 26.957031 13.273438 26.820312 13.101562 C 26.71875 12.976562 26.621094 12.910156 26.453125 12.898438 C 26.238281 12.886719 26.117188 12.453125 26.300781 12.257812 C 26.589844 11.953125 26.820312 11.59375 27.136719 11.3125 C 27.457031 11.035156 27.847656 11.011719 28.242188 11.105469 C 28.570312 11.183594 28.890625 11.285156 29.210938 11.378906 C 29.292969 11.402344 29.390625 11.421875 29.394531 11.53125 C 29.398438 11.644531 29.308594 11.6875 29.226562 11.734375 C 29.140625 11.785156 29.023438 11.773438 28.960938 11.871094 C 29.007812 11.964844 29.089844 11.949219 29.179688 11.9375 M 18.097656 16.40625 C 17.730469 16.515625 17.574219 16.746094 17.65625 17.046875 C 17.714844 17.269531 17.84375 17.339844 18.058594 17.261719 C 18.15625 17.226562 18.242188 17.175781 18.335938 17.132812 C 18.414062 17.097656 18.5 17.035156 18.578125 17.09375 C 18.664062 17.160156 18.617188 17.265625 18.601562 17.359375 C 18.585938 17.449219 18.539062 17.535156 18.574219 17.644531 C 18.867188 17.628906 18.964844 17.789062 18.960938 18.066406 C 18.953125 18.230469 19.066406 18.3125 19.238281 18.316406 C 19.34375 18.316406 19.4375 18.277344 19.535156 18.253906 C 20.101562 18.117188 20.644531 18.140625 21.140625 18.5 C 21.308594 18.625 21.492188 18.730469 21.671875 18.839844 C 21.808594 18.921875 21.933594 19.015625 21.992188 19.167969 C 22.039062 19.289062 22.140625 19.347656 22.253906 19.390625 C 22.527344 19.5 22.804688 19.601562 23.078125 19.71875 C 23.425781 19.871094 23.492188 20.046875 23.339844 20.394531 C 23.203125 20.707031 23.054688 21.015625 22.910156 21.328125 C 22.859375 21.441406 22.804688 21.5625 22.699219 21.636719 C 22.375 21.867188 22.148438 22.179688 21.921875 22.5 C 21.71875 22.777344 21.464844 23.015625 21.191406 23.226562 C 20.859375 23.476562 20.632812 23.808594 20.433594 24.164062 C 20.285156 24.433594 20.238281 24.4375 19.988281 24.257812 C 19.617188 23.992188 19.597656 23.921875 19.695312 23.472656 C 19.824219 22.871094 20.027344 22.285156 20.054688 21.664062 C 20.070312 21.371094 19.984375 21.140625 19.757812 20.964844 C 19.433594 20.707031 19.269531 20.34375 19.097656 19.984375 C 18.960938 19.703125 19.039062 19.4375 19.164062 19.175781 C 19.339844 18.796875 19.320312 18.742188 18.9375 18.582031 C 18.613281 18.445312 18.367188 18.195312 18.097656 17.988281 C 17.921875 17.859375 17.738281 17.769531 17.527344 17.734375 C 17.273438 17.691406 17.042969 17.585938 16.867188 17.402344 C 16.503906 17.039062 16.160156 16.652344 15.882812 16.214844 C 15.519531 15.640625 15.46875 15.035156 15.652344 14.394531 C 15.984375 13.246094 16.3125 12.097656 16.703125 10.972656 C 16.796875 10.707031 16.839844 10.6875 17.09375 10.816406 C 17.203125 10.871094 17.304688 10.945312 17.40625 11.019531 C 17.554688 11.132812 17.675781 11.261719 17.597656 11.476562 C 17.769531 11.5625 17.882812 11.460938 17.980469 11.371094 C 18.082031 11.285156 18.007812 11.183594 17.960938 11.097656 C 17.855469 10.90625 17.949219 10.800781 18.125 10.78125 C 18.828125 10.703125 19.539062 10.578125 20.171875 11.070312 C 20.402344 11.25 20.691406 11.351562 20.894531 11.578125 C 21.015625 11.710938 21.046875 11.828125 20.898438 11.957031 C 20.796875 12.042969 20.769531 12.167969 20.734375 12.289062 C 20.6875 12.445312 20.589844 12.496094 20.429688 12.453125 C 20.277344 12.410156 20.136719 12.347656 19.992188 12.285156 C 19.785156 12.1875 19.679688 12.050781 19.75 11.800781 C 19.816406 11.558594 19.675781 11.398438 19.429688 11.363281 C 19.324219 11.351562 19.289062 11.394531 19.277344 11.492188 C 19.230469 11.796875 19.054688 11.992188 18.769531 12.105469 C 18.527344 12.203125 18.367188 12.398438 18.214844 12.597656 C 18.121094 12.71875 18.144531 12.832031 18.273438 12.917969 C 18.292969 12.929688 18.316406 12.9375 18.335938 12.949219 C 18.65625 13.136719 19.078125 13.171875 19.238281 13.609375 C 19.277344 13.277344 19.53125 13.011719 19.375 12.660156 C 19.285156 12.453125 19.386719 12.367188 19.617188 12.359375 C 19.863281 12.347656 20.035156 12.472656 20.171875 12.65625 C 20.285156 12.8125 20.402344 12.878906 20.582031 12.753906 C 20.699219 12.671875 20.792969 12.71875 20.851562 12.832031 C 20.976562 13.074219 21.160156 13.257812 21.367188 13.429688 C 21.570312 13.597656 21.59375 13.847656 21.621094 14.089844 C 21.632812 14.210938 21.546875 14.257812 21.441406 14.261719 C 21.253906 14.265625 21.121094 14.359375 21.003906 14.492188 C 20.769531 14.753906 20.441406 14.886719 20.164062 15.085938 C 19.78125 15.367188 19.570312 15.785156 19.253906 16.113281 C 19.191406 16.179688 19.175781 16.265625 19.210938 16.355469 C 19.226562 16.390625 19.230469 16.433594 19.230469 16.472656 C 19.226562 16.621094 19.320312 16.828125 19.140625 16.890625 C 18.933594 16.964844 18.914062 16.730469 18.84375 16.605469 C 18.667969 16.292969 18.382812 16.375 18.097656 16.40625 "/>
<path style=" stroke:none;fill-rule:nonzero;fill:rgb(0%,0%,0%);fill-opacity:1;" d="M 24.386719 31.613281 C 21.496094 32.171875 18.273438 30.960938 16.894531 27.996094 C 16.472656 27.089844 16.289062 26.132812 16.296875 25.132812 C 16.296875 24.953125 16.363281 24.878906 16.542969 24.882812 C 17.988281 24.886719 19.433594 24.886719 20.878906 24.886719 C 21.085938 24.886719 21.128906 25 21.160156 25.179688 C 21.308594 25.925781 21.703125 26.5 22.441406 26.753906 C 23.15625 27 23.851562 26.914062 24.441406 26.40625 C 24.996094 25.925781 25.230469 25.277344 25.242188 24.570312 C 25.273438 23.046875 25.261719 21.523438 25.265625 20 C 25.269531 19.714844 25.265625 19.425781 25.265625 19.152344 C 25.664062 19.070312 25.699219 19.09375 25.699219 19.441406 C 25.699219 19.863281 25.699219 20.285156 25.699219 20.761719 C 25.941406 20.359375 26.140625 19.988281 26.476562 19.683594 C 26.585938 19.894531 26.621094 20.035156 26.46875 20.234375 C 25.753906 21.15625 25.554688 22.191406 25.820312 23.328125 C 25.960938 23.917969 26.132812 24.503906 26.121094 25.121094 C 26.113281 25.808594 25.832031 26.328125 25.183594 26.605469 C 24.695312 26.816406 24.246094 27.113281 23.726562 27.242188 C 22.527344 27.539062 21.339844 26.90625 20.882812 25.746094 C 20.699219 25.277344 20.65625 25.253906 20.132812 25.351562 C 20.136719 25.367188 20.132812 25.390625 20.140625 25.394531 C 20.722656 25.785156 20.980469 26.378906 21.152344 27.027344 C 21.234375 27.335938 21.34375 27.636719 21.574219 27.878906 C 21.9375 28.253906 22.40625 28.324219 22.847656 28.046875 C 23.019531 27.941406 23.175781 27.808594 23.332031 27.679688 C 23.761719 27.324219 24.265625 27.1875 24.808594 27.175781 C 25.011719 27.167969 25.21875 27.1875 25.417969 27.160156 C 26.074219 27.066406 26.433594 26.609375 26.472656 25.875 C 26.515625 25.15625 26.347656 24.464844 26.210938 23.769531 C 26.085938 23.144531 26.027344 22.515625 26.242188 21.898438 C 26.328125 21.648438 26.441406 21.414062 26.660156 21.207031 C 26.742188 21.417969 26.808594 21.566406 26.691406 21.765625 C 26.457031 22.171875 26.429688 22.621094 26.46875 23.082031 C 26.527344 23.746094 26.726562 24.382812 26.800781 25.042969 C 26.851562 25.476562 26.859375 25.914062 26.75 26.34375 C 26.5625 27.101562 26.058594 27.5 25.265625 27.523438 C 25.03125 27.53125 24.796875 27.515625 24.5625 27.539062 C 24.152344 27.585938 23.785156 27.742188 23.46875 28.023438 C 23.179688 28.285156 22.867188 28.53125 22.453125 28.558594 C 21.785156 28.605469 21.257812 28.269531 20.984375 27.617188 C 20.875 27.359375 20.796875 27.089844 20.722656 26.816406 C 20.398438 25.648438 19.386719 25.289062 18.503906 25.332031 C 17.847656 25.363281 17.21875 26.070312 17.171875 26.789062 C 17.160156 26.972656 17.15625 27.164062 17.171875 27.347656 C 17.207031 27.671875 17.304688 27.96875 17.546875 28.210938 C 18.574219 29.226562 19.773438 29.832031 21.257812 29.753906 C 21.941406 29.714844 22.5625 29.476562 23.148438 29.121094 C 23.707031 28.785156 24.261719 28.429688 24.902344 28.246094 C 25.128906 28.183594 25.359375 28.125 25.59375 28.128906 C 26.285156 28.140625 26.65625 28.667969 26.472656 29.382812 C 26.355469 29.835938 26.117188 30.226562 25.804688 30.574219 C 25.753906 30.632812 25.703125 30.6875 25.664062 30.757812 C 26.328125 30.535156 26.855469 30.136719 27.265625 29.574219 C 27.914062 28.6875 28.019531 27.703125 27.753906 26.675781 C 27.480469 25.59375 27.566406 24.554688 28.054688 23.554688 C 28.097656 23.46875 28.140625 23.382812 28.160156 23.292969 C 28.207031 23.027344 28.410156 23 28.628906 22.949219 C 28.648438 23.109375 28.578125 23.222656 28.53125 23.34375 C 28.335938 23.835938 28.089844 24.308594 27.996094 24.839844 C 27.882812 25.476562 27.984375 26.097656 28.121094 26.714844 C 28.289062 27.476562 28.273438 28.109375 28.066406 28.824219 C 28.292969 28.597656 28.425781 28.335938 28.554688 28.078125 C 28.832031 27.53125 29 26.949219 29.089844 26.339844 C 29.117188 26.15625 29.113281 25.964844 29.035156 25.789062 C 28.609375 24.800781 28.675781 23.820312 29.039062 22.824219 C 29.15625 22.503906 29.394531 22.289062 29.535156 22.007812 C 29.644531 22.042969 29.625 22.117188 29.625 22.175781 C 29.625 23.382812 29.675781 24.597656 29.585938 25.804688 C 29.363281 28.800781 27.40625 30.953125 24.65625 31.554688 C 24.574219 31.574219 24.488281 31.589844 24.386719 31.613281 M 25.976562 29.703125 C 26.066406 29.527344 26.128906 29.34375 26.164062 29.148438 C 26.21875 28.832031 26.070312 28.601562 25.761719 28.511719 C 25.5 28.4375 25.253906 28.519531 25.007812 28.589844 C 24.398438 28.769531 23.875 29.109375 23.339844 29.433594 C 21.855469 30.324219 20.34375 30.320312 18.804688 29.589844 C 18.679688 29.53125 18.558594 29.472656 18.4375 29.414062 C 18.773438 29.835938 19.140625 30.210938 19.667969 30.347656 C 20.445312 30.550781 21.234375 30.601562 22.03125 30.472656 C 22.554688 30.390625 23.074219 30.28125 23.601562 30.222656 C 24.296875 30.140625 24.566406 30.382812 24.605469 31.101562 C 25.191406 30.757812 25.640625 30.3125 25.976562 29.703125 M 21.886719 31.246094 C 22.578125 31.335938 23.269531 31.339844 23.964844 31.257812 C 24.171875 31.230469 24.238281 31.09375 24.257812 30.921875 C 24.28125 30.738281 24.167969 30.628906 24 30.582031 C 23.886719 30.550781 23.777344 30.535156 23.65625 30.554688 C 22.636719 30.730469 21.625 30.992188 20.570312 30.875 C 20.984375 31.039062 21.40625 31.167969 21.886719 31.246094 M 16.730469 25.371094 C 16.683594 25.75 16.777344 26.113281 16.847656 26.546875 C 16.984375 26.0625 17.171875 25.683594 17.492188 25.367188 C 17.234375 25.320312 16.996094 25.304688 16.730469 25.371094 M 25.480469 25.585938 L 25.292969 26.070312 C 25.714844 25.875 25.84375 25.359375 25.695312 24.441406 C 25.644531 24.839844 25.605469 25.203125 25.480469 25.585938 M 29.109375 23.933594 C 29.042969 24.300781 29.046875 24.664062 29.183594 25.058594 L 29.183594 23.644531 L 29.164062 23.640625 C 29.148438 23.726562 29.132812 23.808594 29.109375 23.933594 M 24.863281 9.480469 C 24.660156 9.777344 24.5625 10.097656 24.492188 10.425781 C 24.355469 11.089844 24.003906 11.566406 23.359375 11.804688 C 23.007812 11.933594 22.746094 12.136719 22.597656 12.503906 C 22.476562 12.792969 22.332031 12.816406 22.050781 12.671875 C 21.628906 12.453125 21.480469 12.070312 21.457031 11.625 C 21.449219 11.453125 21.445312 11.285156 21.402344 11.117188 C 21.332031 10.832031 21.171875 10.648438 20.867188 10.605469 C 20.683594 10.578125 20.496094 10.554688 20.335938 10.441406 C 20.132812 10.300781 20.097656 10.148438 20.234375 9.945312 C 20.414062 9.683594 20.636719 9.457031 20.933594 9.339844 C 21.644531 9.054688 22.375 8.820312 23.15625 8.847656 C 23.539062 8.863281 23.933594 8.890625 24.230469 9.214844 C 24.355469 9.347656 24.539062 9.25 24.699219 9.226562 C 24.921875 9.199219 24.964844 9.253906 24.863281 9.480469 M 25.550781 36.410156 C 25.109375 36.300781 24.710938 36.390625 24.328125 36.566406 C 24.238281 36.609375 24.121094 36.6875 24.089844 36.527344 C 24.058594 36.382812 23.804688 36.226562 24.097656 36.082031 C 24.648438 35.808594 25.21875 35.714844 25.820312 35.886719 C 26.304688 36.027344 26.566406 36.363281 26.632812 36.84375 C 26.726562 37.550781 26.65625 38.265625 26.667969 38.972656 C 26.667969 39.097656 26.609375 39.164062 26.480469 39.15625 C 26.449219 39.152344 26.417969 39.152344 26.386719 39.15625 C 26.179688 39.175781 26 39.160156 26.046875 38.828125 C 25.753906 39.050781 25.472656 39.1875 25.148438 39.226562 C 24.867188 39.257812 24.601562 39.226562 24.34375 39.125 C 23.910156 38.953125 23.664062 38.546875 23.707031 38.109375 C 23.757812 37.648438 24.054688 37.339844 24.539062 37.253906 C 24.941406 37.179688 25.347656 37.203125 25.753906 37.210938 C 25.96875 37.214844 26.03125 37.136719 26.007812 36.9375 C 25.972656 36.664062 25.816406 36.503906 25.550781 36.410156 M 26.042969 37.953125 C 26.082031 37.714844 25.984375 37.621094 25.746094 37.652344 C 25.65625 37.664062 25.558594 37.652344 25.464844 37.65625 C 25.195312 37.667969 24.921875 37.613281 24.65625 37.707031 C 24.484375 37.769531 24.367188 37.886719 24.339844 38.074219 C 24.3125 38.285156 24.363281 38.460938 24.542969 38.585938 C 25.082031 38.972656 25.925781 38.632812 26.042969 37.953125 M 28.679688 39.117188 C 27.953125 38.828125 27.597656 38.296875 27.574219 37.546875 C 27.546875 36.863281 27.949219 36.207031 28.539062 35.964844 C 29.257812 35.675781 29.9375 35.746094 30.523438 36.273438 C 31.019531 36.710938 31.160156 37.570312 30.878906 38.222656 C 30.605469 38.863281 29.941406 39.261719 29.222656 39.214844 C 29.042969 39.203125 28.867188 39.1875 28.679688 39.117188 M 30.398438 37.601562 C 30.394531 37.273438 30.335938 36.964844 30.105469 36.710938 C 29.796875 36.375 29.328125 36.269531 28.90625 36.433594 C 28.449219 36.609375 28.203125 37.007812 28.214844 37.546875 C 28.226562 38.058594 28.480469 38.445312 28.921875 38.605469 C 29 38.632812 29.085938 38.648438 29.171875 38.660156 C 29.726562 38.722656 30.296875 38.394531 30.398438 37.601562 M 20.011719 36.328125 C 20.539062 35.820312 21.144531 35.695312 21.816406 35.882812 C 22.4375 36.054688 22.808594 36.476562 22.957031 37.09375 C 23.191406 38.058594 22.652344 38.949219 21.703125 39.171875 C 20.746094 39.398438 19.804688 38.859375 19.613281 37.9375 C 19.488281 37.355469 19.589844 36.804688 20.011719 36.328125 M 22.351562 37.796875 C 22.359375 37.757812 22.371094 37.722656 22.378906 37.683594 C 22.46875 37.09375 22.097656 36.511719 21.550781 36.386719 C 20.957031 36.253906 20.421875 36.5625 20.246094 37.132812 C 20.046875 37.789062 20.367188 38.445312 20.972656 38.628906 C 21.578125 38.8125 22.167969 38.46875 22.351562 37.796875 M 28.582031 9.949219 C 28.394531 9.71875 28.167969 9.664062 27.886719 9.65625 C 27.324219 9.640625 26.796875 9.714844 26.339844 10.066406 C 25.808594 10.472656 25.648438 11.023438 25.761719 11.667969 C 25.769531 11.714844 25.785156 11.757812 25.792969 11.804688 C 25.847656 12.164062 25.75 12.253906 25.394531 12.167969 C 25.328125 12.152344 25.300781 12.117188 25.300781 12.054688 C 25.289062 11.410156 25.214844 10.757812 25.347656 10.117188 C 25.464844 9.535156 25.8125 9.238281 26.410156 9.226562 C 27.402344 9.210938 28.390625 9.226562 29.382812 9.222656 C 29.558594 9.222656 29.636719 9.304688 29.636719 9.480469 C 29.632812 9.902344 29.632812 10.324219 29.636719 10.746094 C 29.636719 10.886719 29.585938 10.9375 29.4375 10.917969 C 29.203125 10.882812 29.03125 10.816406 28.957031 10.554688 C 28.894531 10.332031 28.753906 10.136719 28.582031 9.949219 M 28.925781 9.828125 L 29.191406 10.1875 C 29.191406 10.015625 29.203125 9.898438 29.1875 9.785156 C 29.167969 9.644531 29.046875 9.667969 28.949219 9.675781 C 28.84375 9.683594 28.863281 9.742188 28.925781 9.828125 M 17.929688 39.132812 C 17.332031 39.335938 16.804688 39.269531 16.363281 38.8125 C 16.144531 38.582031 16.152344 38.554688 16.40625 38.371094 C 16.46875 38.328125 16.523438 38.265625 16.621094 38.261719 C 16.753906 38.402344 16.886719 38.554688 17.085938 38.621094 C 17.554688 38.78125 17.9375 38.535156 17.941406 38.042969 C 17.953125 37.195312 17.945312 36.34375 17.945312 35.496094 C 17.945312 35.355469 17.953125 35.214844 17.949219 35.074219 C 17.945312 34.914062 18.011719 34.84375 18.175781 34.859375 C 18.261719 34.867188 18.347656 34.863281 18.433594 34.863281 C 18.527344 34.863281 18.574219 34.914062 18.574219 35.007812 C 18.554688 36.097656 18.628906 37.191406 18.53125 38.28125 C 18.496094 38.660156 18.296875 38.953125 17.929688 39.132812 "/>
<path style=" stroke:none;fill-rule:nonzero;fill:rgb(0%,0%,0%);fill-opacity:1;" d="M 18.234375 26.050781 C 19.066406 25.695312 19.882812 25.992188 20.242188 26.796875 C 20.472656 27.316406 20.578125 27.867188 20.5 28.4375 C 20.433594 28.921875 20.113281 29.136719 19.632812 29.03125 C 18.828125 28.863281 17.835938 27.808594 17.742188 27.015625 C 17.691406 26.597656 17.832031 26.265625 18.234375 26.050781 M 18.109375 26.710938 C 18.066406 26.816406 18.0625 26.921875 18.097656 27.03125 C 18.339844 27.828125 18.90625 28.332031 19.632812 28.660156 C 19.960938 28.804688 20.175781 28.632812 20.183594 28.265625 C 20.195312 27.796875 20.101562 27.351562 19.914062 26.925781 C 19.757812 26.582031 19.496094 26.367188 19.128906 26.285156 C 18.714844 26.191406 18.292969 26.355469 18.109375 26.710938 M 24.339844 34.742188 C 24.613281 34.511719 24.902344 34.546875 25.191406 34.648438 C 25.316406 34.695312 25.429688 34.769531 25.550781 34.820312 C 25.769531 34.917969 25.894531 34.886719 25.988281 34.671875 C 26.078125 34.460938 26.238281 34.550781 26.363281 34.566406 C 26.519531 34.585938 26.457031 34.726562 26.441406 34.816406 C 26.378906 35.246094 26.035156 35.464844 25.605469 35.367188 C 25.40625 35.320312 25.234375 35.210938 25.046875 35.132812 C 24.855469 35.054688 24.703125 35.0625 24.613281 35.292969 C 24.539062 35.488281 24.355469 35.40625 24.226562 35.386719 C 24.074219 35.363281 24.144531 35.230469 24.160156 35.140625 C 24.183594 34.996094 24.234375 34.867188 24.339844 34.742188 M 27.273438 10.382812 C 26.863281 10.496094 26.632812 10.761719 26.542969 11.148438 C 26.496094 11.339844 26.386719 11.460938 26.171875 11.535156 C 26.082031 11.109375 26.234375 10.765625 26.476562 10.457031 C 26.792969 10.046875 27.414062 9.871094 27.9375 10.042969 C 28.214844 10.132812 28.453125 10.277344 28.546875 10.609375 C 28.375 10.625 28.222656 10.636719 28.113281 10.550781 C 27.863281 10.351562 27.585938 10.34375 27.273438 10.382812 M 30.171875 21.039062 C 30.121094 20.796875 30.203125 20.644531 30.398438 20.515625 C 30.523438 20.433594 30.605469 20.289062 30.710938 20.171875 C 30.933594 20.328125 30.933594 20.511719 30.882812 20.691406 C 30.820312 20.941406 30.734375 21.183594 30.648438 21.425781 C 30.585938 21.609375 30.46875 21.742188 30.253906 21.703125 C 30.121094 21.679688 30.054688 21.441406 30.117188 21.238281 C 30.132812 21.175781 30.152344 21.117188 30.171875 21.039062 M 25.378906 13.652344 C 25.414062 13.503906 25.371094 13.394531 25.296875 13.285156 C 25.222656 13.179688 25.183594 13.0625 25.25 12.933594 C 25.300781 12.84375 25.355469 12.746094 25.46875 12.746094 C 25.585938 12.742188 25.613281 12.847656 25.65625 12.929688 C 25.742188 13.097656 25.832031 13.261719 25.914062 13.429688 C 25.960938 13.53125 25.988281 13.648438 25.855469 13.714844 C 25.714844 13.785156 25.570312 13.890625 25.398438 13.820312 C 25.339844 13.796875 25.363281 13.722656 25.378906 13.652344 "/>
</g>
</svg>
